<mxfile host="Electron" modified="2023-09-25T13:01:41.110Z" agent="Mozilla/5.0 (Windows NT 10.0; Win64; x64) AppleWebKit/537.36 (KHTML, like Gecko) draw.io/21.6.8 Chrome/114.0.5735.289 Electron/25.5.0 Safari/537.36" etag="6CdQEqU-O8Kjjm3ypZMo" version="21.6.8" type="device">
  <diagram name="Page-1" id="fJhcqu6DOzzEyLGG4CRa">
    <mxGraphModel dx="1036" dy="623" grid="1" gridSize="10" guides="1" tooltips="1" connect="1" arrows="1" fold="1" page="1" pageScale="1" pageWidth="850" pageHeight="1100" math="0" shadow="0">
      <root>
        <mxCell id="0" />
        <mxCell id="1" parent="0" />
        <mxCell id="Tue1RO-lDefB8xQBrB7s-1" value="" style="ellipse;html=1;shape=startState;fillColor=#000000;strokeColor=#ff0000;" parent="1" vertex="1">
          <mxGeometry x="384" y="110" width="30" height="30" as="geometry" />
        </mxCell>
        <mxCell id="Tue1RO-lDefB8xQBrB7s-2" value="" style="edgeStyle=orthogonalEdgeStyle;html=1;verticalAlign=bottom;endArrow=open;endSize=8;strokeColor=#FF0000;rounded=0;" parent="1" source="Tue1RO-lDefB8xQBrB7s-1" edge="1">
          <mxGeometry relative="1" as="geometry">
            <mxPoint x="399" y="170" as="targetPoint" />
          </mxGeometry>
        </mxCell>
        <mxCell id="Tue1RO-lDefB8xQBrB7s-3" value="Login" style="rounded=1;whiteSpace=wrap;html=1;arcSize=40;fontColor=#000000;fillColor=#ffffc0;strokeColor=#ff0000;" parent="1" vertex="1">
          <mxGeometry x="339" y="170" width="120" height="40" as="geometry" />
        </mxCell>
        <mxCell id="Tue1RO-lDefB8xQBrB7s-4" value="" style="edgeStyle=orthogonalEdgeStyle;html=1;verticalAlign=bottom;endArrow=open;endSize=8;strokeColor=#FF0000;rounded=0;" parent="1" source="Tue1RO-lDefB8xQBrB7s-3" edge="1">
          <mxGeometry relative="1" as="geometry">
            <mxPoint x="399" y="240" as="targetPoint" />
          </mxGeometry>
        </mxCell>
        <mxCell id="Tue1RO-lDefB8xQBrB7s-5" value="Manage Category" style="rounded=1;whiteSpace=wrap;html=1;arcSize=40;fontColor=#000000;fillColor=#ffffc0;strokeColor=#ff0000;" parent="1" vertex="1">
          <mxGeometry x="339" y="240" width="120" height="40" as="geometry" />
        </mxCell>
        <mxCell id="Tue1RO-lDefB8xQBrB7s-6" value="" style="edgeStyle=orthogonalEdgeStyle;html=1;verticalAlign=bottom;endArrow=open;endSize=8;strokeColor=#FF0000;rounded=0;" parent="1" source="Tue1RO-lDefB8xQBrB7s-5" edge="1">
          <mxGeometry relative="1" as="geometry">
            <mxPoint x="399" y="310" as="targetPoint" />
          </mxGeometry>
        </mxCell>
        <mxCell id="Tue1RO-lDefB8xQBrB7s-10" value="" style="edgeStyle=orthogonalEdgeStyle;rounded=0;orthogonalLoop=1;jettySize=auto;html=1;strokeColor=#FF0000;" parent="1" source="Tue1RO-lDefB8xQBrB7s-7" target="Tue1RO-lDefB8xQBrB7s-8" edge="1">
          <mxGeometry relative="1" as="geometry" />
        </mxCell>
        <mxCell id="Tue1RO-lDefB8xQBrB7s-22" value="" style="edgeStyle=orthogonalEdgeStyle;rounded=0;orthogonalLoop=1;jettySize=auto;html=1;strokeColor=#FF0000;" parent="1" source="Tue1RO-lDefB8xQBrB7s-7" target="Tue1RO-lDefB8xQBrB7s-20" edge="1">
          <mxGeometry relative="1" as="geometry" />
        </mxCell>
        <mxCell id="Tue1RO-lDefB8xQBrB7s-41" value="" style="edgeStyle=orthogonalEdgeStyle;rounded=0;orthogonalLoop=1;jettySize=auto;html=1;strokeColor=#FF0000;" parent="1" source="Tue1RO-lDefB8xQBrB7s-7" target="Tue1RO-lDefB8xQBrB7s-39" edge="1">
          <mxGeometry relative="1" as="geometry" />
        </mxCell>
        <mxCell id="Tue1RO-lDefB8xQBrB7s-7" value="" style="rhombus;whiteSpace=wrap;html=1;" parent="1" vertex="1">
          <mxGeometry x="359" y="310" width="80" height="40" as="geometry" />
        </mxCell>
        <mxCell id="Tue1RO-lDefB8xQBrB7s-8" value="Create Category" style="rounded=1;whiteSpace=wrap;html=1;arcSize=40;fontColor=#000000;fillColor=#ffffc0;strokeColor=#ff0000;" parent="1" vertex="1">
          <mxGeometry x="140" y="310" width="120" height="40" as="geometry" />
        </mxCell>
        <mxCell id="Tue1RO-lDefB8xQBrB7s-9" value="" style="edgeStyle=orthogonalEdgeStyle;html=1;verticalAlign=bottom;endArrow=open;endSize=8;strokeColor=#FF0000;rounded=0;" parent="1" source="Tue1RO-lDefB8xQBrB7s-8" edge="1">
          <mxGeometry relative="1" as="geometry">
            <mxPoint x="200" y="390" as="targetPoint" />
          </mxGeometry>
        </mxCell>
        <mxCell id="Tue1RO-lDefB8xQBrB7s-11" value="Fill Category Name" style="rounded=1;whiteSpace=wrap;html=1;arcSize=40;fontColor=#000000;fillColor=#ffffc0;strokeColor=#ff0000;" parent="1" vertex="1">
          <mxGeometry x="140" y="390" width="120" height="40" as="geometry" />
        </mxCell>
        <mxCell id="Tue1RO-lDefB8xQBrB7s-12" value="" style="edgeStyle=orthogonalEdgeStyle;html=1;verticalAlign=bottom;endArrow=open;endSize=8;strokeColor=#FF0000;rounded=0;" parent="1" source="Tue1RO-lDefB8xQBrB7s-11" edge="1">
          <mxGeometry relative="1" as="geometry">
            <mxPoint x="200" y="470" as="targetPoint" />
          </mxGeometry>
        </mxCell>
        <mxCell id="Tue1RO-lDefB8xQBrB7s-18" style="edgeStyle=orthogonalEdgeStyle;rounded=0;orthogonalLoop=1;jettySize=auto;html=1;entryX=0;entryY=0.5;entryDx=0;entryDy=0;exitX=0;exitY=0.5;exitDx=0;exitDy=0;strokeColor=#FF0000;" parent="1" source="Tue1RO-lDefB8xQBrB7s-13" target="Tue1RO-lDefB8xQBrB7s-8" edge="1">
          <mxGeometry relative="1" as="geometry" />
        </mxCell>
        <mxCell id="Tue1RO-lDefB8xQBrB7s-13" value="is valid" style="rhombus;whiteSpace=wrap;html=1;fontColor=#000000;fillColor=#ffffc0;strokeColor=#ff0000;" parent="1" vertex="1">
          <mxGeometry x="160" y="470" width="80" height="40" as="geometry" />
        </mxCell>
        <mxCell id="Tue1RO-lDefB8xQBrB7s-15" value="yes" style="edgeStyle=orthogonalEdgeStyle;html=1;align=left;verticalAlign=top;endArrow=open;endSize=8;strokeColor=#FF0000;rounded=0;" parent="1" source="Tue1RO-lDefB8xQBrB7s-13" edge="1">
          <mxGeometry x="-1" relative="1" as="geometry">
            <mxPoint x="200" y="570" as="targetPoint" />
          </mxGeometry>
        </mxCell>
        <mxCell id="Tue1RO-lDefB8xQBrB7s-16" value="Add Category" style="rounded=1;whiteSpace=wrap;html=1;arcSize=40;fontColor=#000000;fillColor=#ffffc0;strokeColor=#ff0000;" parent="1" vertex="1">
          <mxGeometry x="140" y="570" width="120" height="40" as="geometry" />
        </mxCell>
        <mxCell id="Tue1RO-lDefB8xQBrB7s-17" value="" style="edgeStyle=orthogonalEdgeStyle;html=1;verticalAlign=bottom;endArrow=open;endSize=8;strokeColor=#FF0000;rounded=0;entryX=0;entryY=0.5;entryDx=0;entryDy=0;exitX=0.5;exitY=1;exitDx=0;exitDy=0;" parent="1" source="Tue1RO-lDefB8xQBrB7s-16" target="Tue1RO-lDefB8xQBrB7s-56" edge="1">
          <mxGeometry relative="1" as="geometry">
            <mxPoint x="200" y="670" as="targetPoint" />
          </mxGeometry>
        </mxCell>
        <mxCell id="Tue1RO-lDefB8xQBrB7s-19" value="No" style="text;html=1;align=center;verticalAlign=middle;resizable=0;points=[];autosize=1;strokeColor=none;fillColor=none;" parent="1" vertex="1">
          <mxGeometry x="120" y="468" width="40" height="30" as="geometry" />
        </mxCell>
        <mxCell id="Tue1RO-lDefB8xQBrB7s-20" value="Update Category" style="rounded=1;whiteSpace=wrap;html=1;arcSize=40;fontColor=#000000;fillColor=#ffffc0;strokeColor=#ff0000;" parent="1" vertex="1">
          <mxGeometry x="339" y="390" width="120" height="40" as="geometry" />
        </mxCell>
        <mxCell id="Tue1RO-lDefB8xQBrB7s-21" value="" style="edgeStyle=orthogonalEdgeStyle;html=1;verticalAlign=bottom;endArrow=open;endSize=8;strokeColor=#FF0000;rounded=0;" parent="1" source="Tue1RO-lDefB8xQBrB7s-20" edge="1">
          <mxGeometry relative="1" as="geometry">
            <mxPoint x="399" y="470" as="targetPoint" />
          </mxGeometry>
        </mxCell>
        <mxCell id="Tue1RO-lDefB8xQBrB7s-23" value="View Category &lt;br&gt;List" style="rounded=1;whiteSpace=wrap;html=1;arcSize=40;fontColor=#000000;fillColor=#ffffc0;strokeColor=#ff0000;" parent="1" vertex="1">
          <mxGeometry x="340" y="470" width="120" height="40" as="geometry" />
        </mxCell>
        <mxCell id="Tue1RO-lDefB8xQBrB7s-24" value="" style="edgeStyle=orthogonalEdgeStyle;html=1;verticalAlign=bottom;endArrow=open;endSize=8;strokeColor=#FF0000;rounded=0;" parent="1" source="Tue1RO-lDefB8xQBrB7s-23" edge="1">
          <mxGeometry relative="1" as="geometry">
            <mxPoint x="400" y="550" as="targetPoint" />
          </mxGeometry>
        </mxCell>
        <mxCell id="Tue1RO-lDefB8xQBrB7s-25" value="Select Category" style="rounded=1;whiteSpace=wrap;html=1;arcSize=40;fontColor=#000000;fillColor=#ffffc0;strokeColor=#ff0000;" parent="1" vertex="1">
          <mxGeometry x="339" y="550" width="120" height="40" as="geometry" />
        </mxCell>
        <mxCell id="Tue1RO-lDefB8xQBrB7s-26" value="" style="edgeStyle=orthogonalEdgeStyle;html=1;verticalAlign=bottom;endArrow=open;endSize=8;strokeColor=#FF0000;rounded=0;" parent="1" source="Tue1RO-lDefB8xQBrB7s-25" edge="1">
          <mxGeometry relative="1" as="geometry">
            <mxPoint x="399" y="630" as="targetPoint" />
          </mxGeometry>
        </mxCell>
        <mxCell id="Tue1RO-lDefB8xQBrB7s-27" value="is selected" style="rhombus;whiteSpace=wrap;html=1;fontColor=#000000;fillColor=#ffffc0;strokeColor=#ff0000;" parent="1" vertex="1">
          <mxGeometry x="359" y="630" width="80" height="40" as="geometry" />
        </mxCell>
        <mxCell id="Tue1RO-lDefB8xQBrB7s-28" value="no" style="edgeStyle=orthogonalEdgeStyle;html=1;align=left;verticalAlign=bottom;endArrow=open;endSize=8;strokeColor=#FF0000;rounded=0;entryX=1;entryY=0.5;entryDx=0;entryDy=0;exitX=1;exitY=0.5;exitDx=0;exitDy=0;" parent="1" source="Tue1RO-lDefB8xQBrB7s-27" target="Tue1RO-lDefB8xQBrB7s-23" edge="1">
          <mxGeometry x="-1" relative="1" as="geometry">
            <mxPoint x="539" y="650" as="targetPoint" />
          </mxGeometry>
        </mxCell>
        <mxCell id="Tue1RO-lDefB8xQBrB7s-29" value="yes" style="edgeStyle=orthogonalEdgeStyle;html=1;align=left;verticalAlign=top;endArrow=open;endSize=8;strokeColor=#FF0000;rounded=0;" parent="1" source="Tue1RO-lDefB8xQBrB7s-27" edge="1">
          <mxGeometry x="-1" relative="1" as="geometry">
            <mxPoint x="399" y="710" as="targetPoint" />
          </mxGeometry>
        </mxCell>
        <mxCell id="Tue1RO-lDefB8xQBrB7s-30" value="Fill Update &lt;br&gt;Category Name" style="rounded=1;whiteSpace=wrap;html=1;arcSize=40;fontColor=#000000;fillColor=#ffffc0;strokeColor=#ff0000;" parent="1" vertex="1">
          <mxGeometry x="340" y="710" width="120" height="40" as="geometry" />
        </mxCell>
        <mxCell id="Tue1RO-lDefB8xQBrB7s-31" value="" style="edgeStyle=orthogonalEdgeStyle;html=1;verticalAlign=bottom;endArrow=open;endSize=8;strokeColor=#FF0000;rounded=0;" parent="1" source="Tue1RO-lDefB8xQBrB7s-30" edge="1">
          <mxGeometry relative="1" as="geometry">
            <mxPoint x="400" y="780" as="targetPoint" />
          </mxGeometry>
        </mxCell>
        <mxCell id="Tue1RO-lDefB8xQBrB7s-37" style="edgeStyle=orthogonalEdgeStyle;rounded=0;orthogonalLoop=1;jettySize=auto;html=1;entryX=0;entryY=0.5;entryDx=0;entryDy=0;exitX=0;exitY=0.5;exitDx=0;exitDy=0;strokeColor=#FF0000;" parent="1" source="Tue1RO-lDefB8xQBrB7s-32" target="Tue1RO-lDefB8xQBrB7s-30" edge="1">
          <mxGeometry relative="1" as="geometry" />
        </mxCell>
        <mxCell id="Tue1RO-lDefB8xQBrB7s-32" value="is valid" style="rhombus;whiteSpace=wrap;html=1;fontColor=#000000;fillColor=#ffffc0;strokeColor=#ff0000;" parent="1" vertex="1">
          <mxGeometry x="360" y="779" width="80" height="40" as="geometry" />
        </mxCell>
        <mxCell id="Tue1RO-lDefB8xQBrB7s-34" value="yes" style="edgeStyle=orthogonalEdgeStyle;html=1;align=left;verticalAlign=top;endArrow=open;endSize=8;strokeColor=#FF0000;rounded=0;" parent="1" source="Tue1RO-lDefB8xQBrB7s-32" edge="1">
          <mxGeometry x="-1" relative="1" as="geometry">
            <mxPoint x="400" y="850" as="targetPoint" />
          </mxGeometry>
        </mxCell>
        <mxCell id="Tue1RO-lDefB8xQBrB7s-35" value="Update" style="rounded=1;whiteSpace=wrap;html=1;arcSize=40;fontColor=#000000;fillColor=#ffffc0;strokeColor=#ff0000;" parent="1" vertex="1">
          <mxGeometry x="340" y="850" width="120" height="40" as="geometry" />
        </mxCell>
        <mxCell id="Tue1RO-lDefB8xQBrB7s-36" value="" style="edgeStyle=orthogonalEdgeStyle;html=1;verticalAlign=bottom;endArrow=open;endSize=8;strokeColor=#FF0000;rounded=0;" parent="1" source="Tue1RO-lDefB8xQBrB7s-35" edge="1">
          <mxGeometry relative="1" as="geometry">
            <mxPoint x="400" y="950" as="targetPoint" />
          </mxGeometry>
        </mxCell>
        <mxCell id="Tue1RO-lDefB8xQBrB7s-38" value="No" style="text;html=1;align=center;verticalAlign=middle;resizable=0;points=[];autosize=1;strokeColor=none;fillColor=none;" parent="1" vertex="1">
          <mxGeometry x="320" y="768" width="40" height="30" as="geometry" />
        </mxCell>
        <mxCell id="Tue1RO-lDefB8xQBrB7s-44" value="" style="edgeStyle=orthogonalEdgeStyle;rounded=0;orthogonalLoop=1;jettySize=auto;html=1;strokeColor=#FF0000;" parent="1" source="Tue1RO-lDefB8xQBrB7s-39" target="Tue1RO-lDefB8xQBrB7s-42" edge="1">
          <mxGeometry relative="1" as="geometry" />
        </mxCell>
        <mxCell id="Tue1RO-lDefB8xQBrB7s-39" value="Delete Category" style="rounded=1;whiteSpace=wrap;html=1;arcSize=40;fontColor=#000000;fillColor=#ffffc0;strokeColor=#ff0000;" parent="1" vertex="1">
          <mxGeometry x="530" y="310" width="120" height="40" as="geometry" />
        </mxCell>
        <mxCell id="Tue1RO-lDefB8xQBrB7s-47" value="" style="edgeStyle=orthogonalEdgeStyle;rounded=0;orthogonalLoop=1;jettySize=auto;html=1;strokeColor=#FF0000;" parent="1" source="Tue1RO-lDefB8xQBrB7s-42" target="Tue1RO-lDefB8xQBrB7s-45" edge="1">
          <mxGeometry relative="1" as="geometry" />
        </mxCell>
        <mxCell id="Tue1RO-lDefB8xQBrB7s-42" value="View Category&lt;br&gt;&amp;nbsp;List" style="rounded=1;whiteSpace=wrap;html=1;arcSize=40;fontColor=#000000;fillColor=#ffffc0;strokeColor=#ff0000;" parent="1" vertex="1">
          <mxGeometry x="530" y="390" width="120" height="40" as="geometry" />
        </mxCell>
        <mxCell id="Tue1RO-lDefB8xQBrB7s-50" value="" style="edgeStyle=orthogonalEdgeStyle;rounded=0;orthogonalLoop=1;jettySize=auto;html=1;strokeColor=#FF0000;" parent="1" source="Tue1RO-lDefB8xQBrB7s-45" target="Tue1RO-lDefB8xQBrB7s-48" edge="1">
          <mxGeometry relative="1" as="geometry" />
        </mxCell>
        <mxCell id="Tue1RO-lDefB8xQBrB7s-45" value="View Category&amp;nbsp;&lt;br&gt;List" style="rounded=1;whiteSpace=wrap;html=1;arcSize=40;fontColor=#000000;fillColor=#ffffc0;strokeColor=#ff0000;" parent="1" vertex="1">
          <mxGeometry x="530" y="470" width="120" height="40" as="geometry" />
        </mxCell>
        <mxCell id="Tue1RO-lDefB8xQBrB7s-48" value="Select Category" style="rounded=1;whiteSpace=wrap;html=1;arcSize=40;fontColor=#000000;fillColor=#ffffc0;strokeColor=#ff0000;" parent="1" vertex="1">
          <mxGeometry x="530" y="550" width="120" height="40" as="geometry" />
        </mxCell>
        <mxCell id="Tue1RO-lDefB8xQBrB7s-49" value="" style="edgeStyle=orthogonalEdgeStyle;html=1;verticalAlign=bottom;endArrow=open;endSize=8;strokeColor=#FF0000;rounded=0;" parent="1" source="Tue1RO-lDefB8xQBrB7s-48" edge="1">
          <mxGeometry relative="1" as="geometry">
            <mxPoint x="590" y="650" as="targetPoint" />
          </mxGeometry>
        </mxCell>
        <mxCell id="Tue1RO-lDefB8xQBrB7s-51" value="is selected" style="rhombus;whiteSpace=wrap;html=1;fontColor=#000000;fillColor=#ffffc0;strokeColor=#ff0000;" parent="1" vertex="1">
          <mxGeometry x="550" y="650" width="80" height="40" as="geometry" />
        </mxCell>
        <mxCell id="Tue1RO-lDefB8xQBrB7s-52" value="no" style="edgeStyle=orthogonalEdgeStyle;html=1;align=left;verticalAlign=bottom;endArrow=open;endSize=8;strokeColor=#FF0000;rounded=0;entryX=1;entryY=0.5;entryDx=0;entryDy=0;exitX=1;exitY=0.5;exitDx=0;exitDy=0;" parent="1" source="Tue1RO-lDefB8xQBrB7s-51" target="Tue1RO-lDefB8xQBrB7s-45" edge="1">
          <mxGeometry x="-1" relative="1" as="geometry">
            <mxPoint x="730" y="670" as="targetPoint" />
            <Array as="points">
              <mxPoint x="660" y="670" />
              <mxPoint x="660" y="490" />
            </Array>
          </mxGeometry>
        </mxCell>
        <mxCell id="Tue1RO-lDefB8xQBrB7s-53" value="yes" style="edgeStyle=orthogonalEdgeStyle;html=1;align=left;verticalAlign=top;endArrow=open;endSize=8;strokeColor=#FF0000;rounded=0;" parent="1" source="Tue1RO-lDefB8xQBrB7s-51" edge="1">
          <mxGeometry x="-1" relative="1" as="geometry">
            <mxPoint x="590" y="750" as="targetPoint" />
          </mxGeometry>
        </mxCell>
        <mxCell id="Tue1RO-lDefB8xQBrB7s-54" value="Delete" style="rounded=1;whiteSpace=wrap;html=1;arcSize=40;fontColor=#000000;fillColor=#ffffc0;strokeColor=#ff0000;" parent="1" vertex="1">
          <mxGeometry x="530" y="750" width="120" height="40" as="geometry" />
        </mxCell>
        <mxCell id="Tue1RO-lDefB8xQBrB7s-55" value="" style="edgeStyle=orthogonalEdgeStyle;html=1;verticalAlign=bottom;endArrow=open;endSize=8;strokeColor=#FF0000;rounded=0;entryX=1;entryY=0.5;entryDx=0;entryDy=0;exitX=0.5;exitY=1;exitDx=0;exitDy=0;" parent="1" source="Tue1RO-lDefB8xQBrB7s-54" target="Tue1RO-lDefB8xQBrB7s-56" edge="1">
          <mxGeometry relative="1" as="geometry">
            <mxPoint x="590" y="850" as="targetPoint" />
          </mxGeometry>
        </mxCell>
        <mxCell id="Tue1RO-lDefB8xQBrB7s-56" value="" style="ellipse;html=1;shape=endState;fillColor=#000000;strokeColor=#ff0000;" parent="1" vertex="1">
          <mxGeometry x="385" y="950" width="30" height="30" as="geometry" />
        </mxCell>
        <mxCell id="Tue1RO-lDefB8xQBrB7s-57" value="" style="swimlane;startSize=0;" parent="1" vertex="1">
          <mxGeometry x="50" y="70" width="670" height="990" as="geometry" />
        </mxCell>
        <mxCell id="9xu0H0L9MH672m8M3pfl-1" value="&lt;font style=&quot;font-size: 14px;&quot;&gt;Figure: Manage Category Activity Diagram&lt;/font&gt;" style="text;html=1;align=center;verticalAlign=middle;resizable=0;points=[];autosize=1;strokeColor=none;fillColor=none;" vertex="1" parent="Tue1RO-lDefB8xQBrB7s-57">
          <mxGeometry x="190" y="940" width="290" height="30" as="geometry" />
        </mxCell>
      </root>
    </mxGraphModel>
  </diagram>
</mxfile>
